<svg width="31" height="32" viewBox="0 0 31 32" fill="none" xmlns="http://www.w3.org/2000/svg">
<g clip-path="url(#clip0_62_34)">
<path d="M15.5 22.4583C19.0668 22.4583 21.9583 19.5668 21.9583 16C21.9583 12.4332 19.0668 9.54166 15.5 9.54166C11.9331 9.54166 9.04163 12.4332 9.04163 16C9.04163 19.5668 11.9331 22.4583 15.5 22.4583Z" stroke="#F0AF4B" stroke-width="2" stroke-linecap="round" stroke-linejoin="round"/>
<path d="M15.5 1.79166V4.37499" stroke="#F0AF4B" stroke-width="2" stroke-linecap="round" stroke-linejoin="round"/>
<path d="M15.5 27.625V30.2083" stroke="#F0AF4B" stroke-width="2" stroke-linecap="round" stroke-linejoin="round"/>
<path d="M5.45081 5.95084L7.28497 7.785" stroke="#F0AF4B" stroke-width="2" stroke-linecap="round" stroke-linejoin="round"/>
<path d="M23.715 24.215L25.5491 26.0492" stroke="#F0AF4B" stroke-width="2" stroke-linecap="round" stroke-linejoin="round"/>
<path d="M1.29163 16H3.87496" stroke="#F0AF4B" stroke-width="2" stroke-linecap="round" stroke-linejoin="round"/>
<path d="M27.125 16H29.7083" stroke="#F0AF4B" stroke-width="2" stroke-linecap="round" stroke-linejoin="round"/>
<path d="M5.45081 26.0492L7.28497 24.215" stroke="#F0AF4B" stroke-width="2" stroke-linecap="round" stroke-linejoin="round"/>
<path d="M23.715 7.785L25.5491 5.95084" stroke="#F0AF4B" stroke-width="2" stroke-linecap="round" stroke-linejoin="round"/>
</g>
<defs>
<clipPath id="clip0_62_34">
<rect width="31" height="31" fill="white" transform="translate(0 0.5)"/>
</clipPath>
</defs>
</svg>
