<svg width="24" height="24" viewBox="0 0 24 24" fill="none" xmlns="http://www.w3.org/2000/svg">
<path d="M8.59 4.58998C8.82231 4.3563 9.10875 4.18363 9.42387 4.08732C9.73899 3.99102 10.073 3.97407 10.3963 4.03797C10.7195 4.10188 11.022 4.24466 11.2768 4.45363C11.5315 4.66259 11.7307 4.93127 11.8566 5.23578C11.9825 5.54028 12.0313 5.87117 11.9985 6.19905C11.9657 6.52692 11.8524 6.84161 11.6687 7.11514C11.4849 7.38868 11.2365 7.61258 10.9454 7.76695C10.6542 7.92132 10.3295 8.00137 10 7.99998H1M11.59 19.41C11.8223 19.6437 12.1088 19.8163 12.4239 19.9126C12.739 20.0089 13.073 20.0259 13.3963 19.962C13.7195 19.8981 14.022 19.7553 14.2768 19.5463C14.5315 19.3374 14.7307 19.0687 14.8566 18.7642C14.9825 18.4597 15.0313 18.1288 14.9985 17.8009C14.9657 17.473 14.8524 17.1584 14.6687 16.8848C14.4849 16.6113 14.2365 16.3874 13.9454 16.233C13.6542 16.0786 13.3295 15.9986 13 16H1M16.73 7.72998C17.0208 7.43987 17.3787 7.2259 17.7719 7.10699C18.1652 6.98809 18.5816 6.96792 18.9845 7.04827C19.3874 7.12861 19.7642 7.307 20.0817 7.56765C20.3993 7.8283 20.6477 8.16318 20.805 8.54267C20.9623 8.92217 21.0236 9.33458 20.9836 9.74343C20.9436 10.1523 20.8035 10.545 20.5756 10.8868C20.3477 11.2286 20.0391 11.509 19.6771 11.7031C19.3151 11.8973 18.9108 11.9992 18.5 12H1" stroke="#F0AF4B" stroke-width="2" stroke-linecap="round" stroke-linejoin="round"/>
</svg>
